<?xml version="1.0" encoding="utf-8"?>
<!-- Generator: Adobe Illustrator 25.2.1, SVG Export Plug-In . SVG Version: 6.00 Build 0)  -->
<svg version="1.1" id="Layer_1" xmlns="http://www.w3.org/2000/svg" xmlns:xlink="http://www.w3.org/1999/xlink" x="0px" y="0px"
	 viewBox="0 0 100 100" style="enable-background:new 0 0 100 100;" xml:space="preserve">
<style type="text/css">
	.st0{fill:#F7F2DA;stroke:#5D5D5D;stroke-width:0.25;stroke-miterlimit:10;}
	.st1{fill:#824737;}
	.st2{fill:#F6C785;}
	.st3{fill:#8EA3AE;}
</style>
<g>
	<path class="st0" d="M90.5,63.1H79.9c-1.2,0-2.2,1-2.2,2.2v10.6c0,1.2,1,2.2,2.2,2.2h10.6c1.2,0,2.2-1,2.2-2.2V65.3
		C92.7,64.1,91.7,63.1,90.5,63.1z"/>
	<g>
		<path d="M87.4,70.3c-0.1-1.1-0.1-2.5-0.1-3.5h0c-0.3,0.9-0.6,2-1,3.1l-1.4,3.9H84L82.7,70c-0.4-1.1-0.7-2.2-0.9-3.1h0
			c0,1-0.1,2.4-0.2,3.6l-0.2,3.5h-1l0.6-8.1h1.3l1.4,3.9c0.3,1,0.6,1.9,0.8,2.7h0c0.2-0.8,0.5-1.7,0.9-2.7l1.4-3.9h1.3l0.5,8.1h-1
			L87.4,70.3z"/>
	</g>
	<g>
		<path d="M89.2,76.5c0.2,0.1,0.5,0.2,0.9,0.2c0.7,0,0.9-0.4,0.9-0.8c0-0.5-0.5-0.8-1-0.8h-0.3v-0.4h0.3c0.4,0,0.9-0.2,0.9-0.7
			c0-0.3-0.2-0.6-0.7-0.6c-0.3,0-0.6,0.1-0.8,0.3l-0.1-0.4c0.2-0.1,0.6-0.3,1-0.3c0.8,0,1.1,0.5,1.1,0.9c0,0.4-0.2,0.7-0.7,0.9v0
			c0.5,0.1,0.9,0.5,0.9,1c0,0.6-0.5,1.2-1.4,1.2c-0.4,0-0.8-0.1-1-0.3L89.2,76.5z"/>
	</g>
</g>
<path class="st1" d="M82.7,54.9c-2.6-6.7-6.6-11.7-11-12.3l-0.2-3.2c-0.5-3.3-3.1-2.4-4.1-0.5c-0.6,1.1-0.6,2.6-0.2,4
	c-0.5,0.1-0.9,0.2-1.4,0.4l-2.1-4.3c-2-3.4-4.4-1.2-4.7,1.2c-0.2,1.8,0.8,3.6,2.2,5.1c-1.7,0.9-2.9,3.6-4.8,5
	c-14.6-3.9-32.7-2.1-38.2,15.1c-7,0.6-10.6-3.9-8.7-7.7c1-1.9,1.5-4.6,2.6-4.7c2.4-0.2,3.2-5.8,1.1-7.9c0,0-0.1,0-0.1-0.1
	c-0.9,0.2-1.8,0.4-2.8,0.7c0.4-0.5,1-0.9,1.8-1.3c-2.3-0.4-3.1,1.2-5.1,2.4c0,0,0,0,0,0c0.4-0.6,0-1.8-0.5-1.4
	c-7.1,5.4-10.1,23,9.9,32.4c0,0,0,0.1,0,0.1H17c0,0,0,0,0.1,0l0,0h45.6c0-3.9-5.6-2.9-12.7-2c-7.1,1-5.1-0.2-4.2-3.4
	c0.2-0.6,0.4-1.1,0.6-1.7c2.2-1,4.6-2,7.2-2.9c1.7,4.8,8.4,5.6,14.7,10h7.4c0.4-2.2-2.7-0.7-4.6-1c0,0-10.1-5.9-9.2-12.2
	c1.9-0.8,3.1-3.2,4.8-4c3.4,2.2,5.4,3.2,11.5,1.3C82.2,60.7,85.2,61.5,82.7,54.9"/>
<path class="st2" d="M55.9,54.3c0,0-3.7,1.8-6.5,1.9c-2.8,0.1-12.2-2.7-14.9-1.6c-2.6,1.1-10.2,6.7-11,11.7
	c-0.8,4.9-1.5-0.8-1.4-1.6s1.7-5,3.2-6.8c1.5-1.8,5.7-5.1,8.1-5.9c2.4-0.8,7.8-0.9,11,0c3.2,0.9,7.8,1.5,9.7,1
	C56,52.5,58.2,52.9,55.9,54.3z"/>
<path class="st2" d="M64.7,47.9c0,0,4.2,2.2,5.9,2.2s3.2-1.1,2.2-1.3c-0.9-0.2-4,0-4.9-0.8c-0.9-0.8-3.5-1.8-3.5-1.8L64.7,47.9z"/>
<path class="st2" d="M74.3,61.4c0,0-5.4,0.4-6-1.5c-0.6-2,0.8-0.2,0.8-0.2s1.1,0.8,2.3,1s2.4-0.5,2.6,0.1
	C74.3,61.4,74.3,61.4,74.3,61.4z"/>
<path class="st2" d="M80.9,46.6c0,0-3.1,2.2-4.3,2.2s-2.3-1.1-1.6-1.3c0.7-0.2,2.9,0,3.6-0.8s2.6-1.8,2.6-1.8L80.9,46.6z"/>
<path class="st3" d="M78.6,53.9h-0.7c-1.4,0-2.5-1.1-2.5-2.5v-0.9c0-0.7,0.6-1.3,1.3-1.3h3.6c0.7,0,1.3,0.6,1.3,1.3V51
	C81.5,52.6,80.2,53.9,78.6,53.9z"/>
<path class="st3" d="M71.2,54.2h-0.7c-1.4,0-2.5-1.1-2.5-2.5v-0.9c0-0.7,0.6-1.3,1.3-1.3h3.6c0.7,0,1.3,0.6,1.3,1.3v0.6
	C74.1,52.9,72.8,54.2,71.2,54.2z"/>
<polygon class="st3" points="73.6,50.6 76,50.6 76.2,49.8 73.2,49.8 "/>
<path class="st1" d="M61.2,64.9c0,0,5.8,4.3,8.2,4.5s6.9-2.5,8-3.2c1-0.7,2.5-1.8,3.9-1.8c1.4,0,2.2-0.4,1.6-0.8
	c-0.6-0.5-2-1.4-3.1-1.3c-1.1,0.1-3.1,0.2-4.1,1.3s-3.1,2.2-4.6,2.3c-1.4,0.1-5.3-2-5.7-3.6S61.2,64.9,61.2,64.9z"/>
</svg>
