<svg xmlns="http://www.w3.org/2000/svg" viewBox="0 0 700 700"><defs><style>.cls-1,.cls-2{fill:#cca04b;}.cls-1,.cls-3,.cls-4,.cls-5{stroke:#000;}.cls-1,.cls-3,.cls-5{stroke-miterlimit:10;}.cls-1,.cls-5{stroke-width:45px;}.cls-3,.cls-4,.cls-5{fill:none;}.cls-3{stroke-width:35px;}.cls-4{stroke-linecap:round;stroke-linejoin:round;stroke-width:37px;}</style></defs><g id="Layer_3" data-name="Layer 3"><path class="cls-1" d="M543.07,214V144a45.41,45.41,0,0,0-45.41-45.41h0A45.41,45.41,0,0,0,452.25,144V176.1"/><path class="cls-1" d="M162.25,214V144a45.41,45.41,0,0,1,45.41-45.41h0A45.41,45.41,0,0,1,253.07,144V176.1"/><path class="cls-2" d="M261,623.88A222.5,222.5,0,0,1,38.5,401.38v-1A222.5,222.5,0,0,1,261,177.88H439a222.5,222.5,0,0,1,222.5,222.5v1A222.5,222.5,0,0,1,439,623.88Z"/><path d="M439,200.38c110.46,0,200,89.54,200,200v1c0,110.46-89.54,200-200,200H261c-110.46,0-200-89.54-200-200v-1c0-110.46,89.54-200,200-200H439m0-45H261a244.83,244.83,0,0,0-245,245v1a244.83,244.83,0,0,0,245,245H439a244.83,244.83,0,0,0,245-245v-1a244.83,244.83,0,0,0-245-245Z"/><circle cx="467.14" cy="310.88" r="37.5"/><circle cx="237.14" cy="310.88" r="37.5"/><path class="cls-3" d="M355.61,410.89v68.94a45.41,45.41,0,0,1-45.41,45.41h0a45.41,45.41,0,0,1-45.41-45.41"/><path class="cls-3" d="M446.43,479.83A45.41,45.41,0,0,1,401,525.24h0a45.41,45.41,0,0,1-45.41-45.41V410.89"/><polygon class="cls-4" points="355.61 431.3 373.11 400.99 338.11 400.99 355.61 431.3"/><path class="cls-5" d="M566,380.78a69.41,69.41,0,0,0-69.4,69.41h0a69.4,69.4,0,0,0,69.4,69.4"/><path class="cls-5" d="M137.77,380.78a69.41,69.41,0,0,1,69.4,69.41h0a69.4,69.4,0,0,1-69.4,69.4"/><line class="cls-5" x1="554.5" y1="311.05" x2="624.5" y2="252.05"/><line class="cls-5" x1="145.5" y1="311.05" x2="75.5" y2="252.05"/></g></svg>